<svg id="Capa_1" data-name="Capa 1" xmlns="http://www.w3.org/2000/svg" viewBox="0 0 50.09 84.21"><defs><style>.cls-1{fill:#353b3a;}</style></defs><title>1</title><g id="Work"><g id="Work-Mobile-OK"><g id="Case-1"><path id="_1" data-name="1" class="cls-1" d="M39.77,76.07a6.86,6.86,0,0,0,3.58,3.7,17,17,0,0,0,6.74,1.09v3.35Q33,83.59,28,83.59T.62,84.21V80.86q7.56,0,11.3-2.84t3.74-10.24v-39q0-7.71-1.36-11.3a7.61,7.61,0,0,0-4.56-4.75Q6.54,11.61,0,11.61V8.1A128.08,128.08,0,0,0,22.82,6,48.56,48.56,0,0,0,38.64,0V68.71A19.1,19.1,0,0,0,39.77,76.07Z"/></g></g></g></svg>